<svg id="Layer_1" data-name="Layer 1" xmlns="http://www.w3.org/2000/svg" viewBox="0 0 1919.54 1919.54"><defs><style>.cls-1{fill:#36d1dc;}.cls-2{fill:#139699;opacity:0.47;}.cls-3{fill:#fff;}</style></defs><circle class="cls-1" cx="959.77" cy="959.77" r="959.77"/><path class="cls-2" d="M1232.69,481.77,895.31,1364.41,325.15,1528.49l347.69,347.69A959.35,959.35,0,0,0,960.23,1920c494.58,0,901.65-374.15,954-854.82Z" transform="translate(-0.46 -0.46)"/><path class="cls-3" d="M1564.81,1438.31c-23.54-41.2-250.88-98.71-365.69-136.33-30.63-10-53.24-18.62-61.86-25.13a15.83,15.83,0,0,1-2.56-2.32c-11.54-13.72-16.61-49.36-18.76-83.18,45.39-50.94,74.3-114.77,90.85-161.15a315,315,0,0,0,15.26-64.12c42.25-3.91,147.86-140.4,45.65-146.28,54.32-102.92,28.59-263.46-35-338-69.07-81-150.79-68.81-150.79-68.81-58.39-58.39-184.22-48.52-184.22-48.52C598.92,415.23,630.7,749.93,639.06,811,538,798.7,633.85,966.47,679.73,966.47a83.1,83.1,0,0,0,17.76-2A316.08,316.08,0,0,0,713,1030.2c16.62,46.61,45.72,110.86,91.49,161.91-2.07,31.83-6.75,65.12-17,80.1a23.53,23.53,0,0,1-1.71,2.32c-5.09,6.06-25.42,14.36-54.7,24.24-111.11,37.46-351.17,97.12-375.37,139.54-6.87,12-17.77,45.54-30.5,90.18,156.06,174.29,382.71,284.06,635.08,284.06s479-109.77,635.08-284.06C1582.57,1483.85,1571.68,1450.32,1564.81,1438.31Z" transform="translate(-0.46 -0.46)"/></svg>